<?xml version="1.0" encoding="utf-8"?>
<!-- Generator: Adobe Illustrator 24.0.2, SVG Export Plug-In . SVG Version: 6.00 Build 0)  -->
<svg version="1.1" id="Layer_1" xmlns="http://www.w3.org/2000/svg" xmlns:xlink="http://www.w3.org/1999/xlink" x="0px" y="0px"
	 width="47px" height="35px" viewBox="0 0 47 35" style="enable-background:new 0 0 47 35;" xml:space="preserve">
<style type="text/css">
	.st0{fill:#010101;}
</style>
<g>
	<path class="st0" d="M43.2,15L43,15L41.5,9l0.2,0c0.3-0.1,0.5-0.3,0.5-0.7V7.3c0-1.9-1.5-3.4-3.4-3.4h-6.7V1.8
		c0-0.9-0.7-1.6-1.6-1.6H5.4c-0.9,0-1.6,0.7-1.6,1.6v15.7c0,0.4,0.3,0.7,0.7,0.7c0.4,0,0.7-0.3,0.7-0.7V1.8c0-0.1,0.1-0.3,0.3-0.3
		h25.1c0.1,0,0.3,0.1,0.3,0.3v15.7c0,0.4,0.3,0.7,0.7,0.7s0.7-0.3,0.7-0.7v-1.2h10.4c1.3,0,2.5,0.8,2.9,2.1l0.1,0.3h-3
		c-0.4,0-0.7,0.3-0.7,0.7v1.8c0,1.4,1.1,2.5,2.5,2.5h1.2v4.2h-2.6l0-0.1c-0.7-2.1-2.7-3.6-5-3.6s-4.3,1.4-5,3.6l0,0.1h-0.8v-6.7
		c0-0.4-0.3-0.7-0.7-0.7c-0.4,0-0.7,0.3-0.7,0.7v6.7H20.6l0-0.1c-0.7-2.1-2.7-3.6-5-3.6s-4.3,1.4-5,3.6l0,0.1H5.4
		c-0.1,0-0.3-0.1-0.3-0.3v-2.1h4c0.4,0,0.7-0.3,0.7-0.7s-0.3-0.7-0.7-0.7H0.8c-0.4,0-0.7,0.3-0.7,0.7s0.3,0.7,0.7,0.7h3v2.1
		c0,0.9,0.7,1.6,1.6,1.6h4.9l0,0.3c0,2.9,2.4,5.3,5.3,5.3s5.3-2.4,5.3-5.3v-0.2l0.2-0.1h11.5l0,0.2l-0.2,0.1h0.2
		c0,2.9,2.4,5.3,5.3,5.3s5.3-2.4,5.3-5.3v-0.2l0.2-0.1h2.8c0.4,0,0.7-0.3,0.7-0.7v-9.2C46.9,17.2,45.3,15.4,43.2,15z M32.1,5.2h6.7
		c1.2,0,2.1,0.9,2.1,2.1v0.3h-8.8V5.2z M32.1,15V8.9h8.1l1.5,6.1H32.1z M15.6,33.5c-2.2,0-4-1.8-4-4s1.8-4,4-4c2.2,0,4,1.8,4,4
		S17.8,33.5,15.6,33.5z M37.9,33.5c-2.2,0-4-1.8-4-4s1.8-4,4-4s4,1.8,4,4S40.1,33.5,37.9,33.5z M45.5,22.4h-1.2
		c-0.7,0-1.2-0.5-1.2-1.2V20h2.4V22.4z"/>
	<path class="st0" d="M15.6,27.8c-0.9,0-1.7,0.8-1.7,1.7s0.8,1.7,1.7,1.7c0.9,0,1.7-0.8,1.7-1.7S16.5,27.8,15.6,27.8z"/>
	<circle class="st0" cx="37.9" cy="29.5" r="1.7"/>
	<path class="st0" d="M22,25.3c0,0.4,0.3,0.7,0.7,0.7h5.4c0.4,0,0.7-0.3,0.7-0.7c0-0.4-0.3-0.7-0.7-0.7h-5.4
		C22.4,24.6,22,24.9,22,25.3z"/>
	<path class="st0" d="M1.4,22.1H13c0.4,0,0.7-0.3,0.7-0.7c0-0.4-0.3-0.7-0.7-0.7H1.4c-0.4,0-0.7,0.3-0.7,0.7
		C0.7,21.8,1,22.1,1.4,22.1z"/>
	<path class="st0" d="M26.4,6.3c-0.3-0.3-0.7-0.3-1,0l-8.2,8.2l-4.4-4.4c-0.1-0.1-0.3-0.2-0.5-0.2s-0.4,0.1-0.5,0.2
		c-0.1,0.1-0.2,0.3-0.2,0.5s0.1,0.4,0.2,0.5l4.9,4.9c0.3,0.3,0.7,0.3,1,0l8.7-8.7c0.1-0.1,0.2-0.3,0.2-0.5
		C26.6,6.6,26.6,6.4,26.4,6.3L26.4,6.3z"/>
</g>
</svg>
