<?xml version="1.0" encoding="utf-8"?>
<!-- Generator: Adobe Illustrator 24.0.2, SVG Export Plug-In . SVG Version: 6.00 Build 0)  -->
<svg version="1.1" id="Layer_1" xmlns="http://www.w3.org/2000/svg" xmlns:xlink="http://www.w3.org/1999/xlink" x="0px" y="0px"
	 width="47px" height="35px" viewBox="0 0 47 35" style="enable-background:new 0 0 47 35;" xml:space="preserve">
<style type="text/css">
	.st0{fill:#010101;}
</style>
<g>
	<path class="st0" d="M38.6,0H13.2c-1.7,0-3,1.4-3,3v23.5H6c-0.3,0-0.6,0.3-0.6,0.6v1.2c0,1.7,1.4,3,3,3h18.7v3
		c0,0.2,0.1,0.4,0.3,0.5s0.4,0.1,0.6-0.1l2.1-1.5l2.1,1.5c0.1,0.1,0.2,0.1,0.4,0.1c0.1,0,0.2,0,0.3-0.1c0.2-0.1,0.3-0.3,0.3-0.5v-3
		h0.6c1.7,0,3-1.4,3-3V4.8H41c0.3,0,0.6-0.3,0.6-0.6V3C41.6,1.4,40.3,0,38.6,0z M27.1,30.2H8.4c-1,0-1.8-0.8-1.8-1.8v-0.6h20.5V30.2
		z M30.5,32.1c-0.2-0.2-0.5-0.2-0.7,0l-1.4,1.1v-6.7c0.1,0,0.2,0,0.4,0c0.3,0.4,0.9,0.7,1.5,0.7c0.6,0,1.1-0.3,1.5-0.7
		c0.1,0,0.2,0,0.4,0l0,6.7L30.5,32.1z M32.7,23.5c-0.2,0.1-0.3,0.2-0.4,0.3c-0.1,0.2-0.1,0.3,0,0.5c0.1,0.2,0.1,0.5-0.1,0.7
		c-0.2,0.2-0.5,0.2-0.7,0.1c-0.2-0.1-0.3-0.1-0.5,0c-0.2,0.1-0.3,0.2-0.3,0.4c-0.1,0.2-0.3,0.4-0.6,0.4c-0.3,0-0.5-0.2-0.6-0.4
		c-0.1-0.2-0.2-0.3-0.3-0.4c-0.2-0.1-0.3-0.1-0.5,0c-0.2,0.1-0.5,0.1-0.7-0.1c-0.2-0.2-0.2-0.5-0.1-0.7c0.1-0.2,0.1-0.3,0-0.5
		c-0.1-0.2-0.2-0.3-0.4-0.3c-0.3-0.1-0.4-0.3-0.4-0.6c0-0.3,0.2-0.5,0.4-0.6c0.2-0.1,0.3-0.2,0.4-0.3c0.1-0.2,0.1-0.3,0-0.5
		c-0.1-0.2-0.1-0.5,0.1-0.7c0.2-0.2,0.5-0.2,0.7-0.1c0.2,0.1,0.3,0.1,0.5,0c0.2-0.1,0.3-0.2,0.3-0.4c0.1-0.2,0.3-0.4,0.6-0.4
		c0.3,0,0.5,0.2,0.6,0.4c0.1,0.2,0.2,0.3,0.3,0.4c0.2,0.1,0.3,0.1,0.5,0c0.2-0.1,0.5-0.1,0.7,0.1c0.2,0.2,0.2,0.5,0.1,0.7
		c-0.1,0.2-0.1,0.3,0,0.5c0.1,0.2,0.2,0.3,0.4,0.3c0.2,0.1,0.4,0.3,0.4,0.6C33.2,23.2,33,23.4,32.7,23.5z M36.1,1.3
		c0,0-0.1,0.1-0.1,0.2c-0.1,0.1-0.1,0.2-0.2,0.3c0,0.1-0.1,0.1-0.1,0.2c0,0.1-0.1,0.2-0.1,0.4c0,0.1,0,0.1,0,0.2
		c0,0.2-0.1,0.4-0.1,0.6v25.3c0,1-0.8,1.8-1.8,1.8c-0.2,0-0.4,0-0.6-0.1v-4.2c0.4-0.4,0.6-0.9,0.5-1.5c0.4-0.3,0.7-0.9,0.7-1.5
		c0-0.6-0.3-1.1-0.7-1.5c0.1-0.6-0.1-1.1-0.5-1.5c-0.4-0.4-1-0.6-1.5-0.5c-0.3-0.4-0.9-0.7-1.5-0.7c-0.6,0-1.1,0.3-1.5,0.7
		c-0.6-0.1-1.1,0.1-1.5,0.5c-0.4,0.4-0.6,1-0.5,1.5c-0.4,0.3-0.7,0.9-0.7,1.5c0,0.6,0.3,1.1,0.7,1.5c-0.1,0.5,0.1,1.1,0.5,1.5v0.7
		H11.4V3c0-1,0.8-1.8,1.8-1.8L36.1,1.3C36.2,1.2,36.1,1.3,36.1,1.3z M40.4,3.6h-3.6V3c0-1,0.8-1.8,1.8-1.8S40.4,2,40.4,3V3.6z"/>
	<rect x="25.3" y="4.8" class="st0" width="2.4" height="1.2"/>
	<rect x="19.3" y="4.8" class="st0" width="4.8" height="1.2"/>
	<rect x="17.5" y="7.8" class="st0" width="12.1" height="1.2"/>
	<rect x="14.4" y="11.5" class="st0" width="3" height="1.2"/>
	<rect x="14.4" y="14.5" class="st0" width="6.6" height="1.2"/>
	<rect x="18.7" y="11.5" class="st0" width="13.9" height="1.2"/>
	<rect x="22.3" y="14.5" class="st0" width="10.3" height="1.2"/>
	<rect x="14.4" y="17.5" class="st0" width="12.1" height="1.2"/>
	<rect x="14.4" y="20.5" class="st0" width="10.3" height="1.2"/>
</g>
</svg>
