<?xml version="1.0" encoding="utf-8"?>
<!-- Generator: Adobe Illustrator 24.0.2, SVG Export Plug-In . SVG Version: 6.00 Build 0)  -->
<svg version="1.1" id="Layer_1" xmlns="http://www.w3.org/2000/svg" xmlns:xlink="http://www.w3.org/1999/xlink" x="0px" y="0px"
	 width="47px" height="35px" viewBox="0 0 47 35" style="enable-background:new 0 0 47 35;" xml:space="preserve">
<style type="text/css">
	.st0{fill:#010101;}
</style>
<g>
	<path class="st0" d="M35.2,18.4V5.8c0,0,0,0,0-0.1c0,0,0-0.1,0-0.1c0,0,0-0.1-0.1-0.1c0,0,0,0,0-0.1l-3.9-5.2C31,0.1,30.8,0,30.6,0
		h-7.8h-5.2H9.9C9.7,0,9.5,0.1,9.4,0.3L5.5,5.4c0,0,0,0.1,0,0.1c0,0,0,0,0,0.1c0,0.1,0,0.2,0,0.2v25.9c0,0.4,0.3,0.6,0.6,0.6h21.2
		c1.5,1.6,3.7,2.6,6.1,2.6c4.7,0,8.4-3.8,8.4-8.4C41.6,22.6,38.9,19.3,35.2,18.4z M33.2,5.2h-8.6l-1-3.9h6.6L33.2,5.2z M17,6.5h6.5
		V12l-0.2-0.2c0,0,0,0,0,0c-0.3-0.3-0.7-0.3-0.9,0l-0.8,0.8l-0.8-0.8c-0.1-0.1-0.3-0.2-0.5-0.2c-0.2,0-0.3,0.1-0.5,0.2L19,12.7
		l-0.8-0.8c0,0,0,0,0,0c-0.3-0.3-0.7-0.3-0.9,0L17,12V6.5z M22.3,1.3l1,3.9h-6.1l1-3.9H22.3z M10.2,1.3h6.6l-1,3.9H7.3L10.2,1.3z
		 M6.6,31.1V6.5h9.1v7.1c0,0.2,0.1,0.3,0.2,0.5c0.3,0.3,0.7,0.3,0.9,0l0.8-0.8l0.8,0.8c0,0,0,0,0,0c0.3,0.3,0.7,0.3,0.9,0l0.8-0.8
		l0.8,0.8c0,0,0,0,0,0c0.3,0.3,0.7,0.3,0.9,0l0.8-0.8l0.8,0.8c0.1,0.1,0.3,0.2,0.5,0.2c0.4,0,0.6-0.3,0.6-0.6V6.5h9.1v11.7
		c-0.2,0-0.4,0-0.6,0c-4.7,0-8.4,3.8-8.4,8.4c0,1.7,0.5,3.2,1.3,4.5H6.6z M33.2,33.7c-3.9,0-7.1-3.2-7.1-7.1c0-3.9,3.2-7.1,7.1-7.1
		c3.9,0,7.1,3.2,7.1,7.1C40.4,30.5,37.2,33.7,33.2,33.7z"/>
	<path class="st0" d="M9.1,24.4l0.2-0.2v2.3c0,0.4,0.3,0.6,0.6,0.6s0.6-0.3,0.6-0.6v-2.3l0.2,0.2c0.1,0.1,0.3,0.2,0.5,0.2
		c0.2,0,0.3-0.1,0.5-0.2c0.3-0.3,0.3-0.7,0-0.9l-1.3-1.3c-0.1-0.1-0.1-0.1-0.2-0.1c-0.1,0-0.2,0-0.2,0c0,0,0,0,0,0c0,0,0,0,0,0
		c-0.1,0-0.2,0-0.2,0c-0.1,0-0.2,0.1-0.2,0.1l-1.3,1.3c-0.2,0.3-0.2,0.6,0,0.9C8.4,24.7,8.8,24.7,9.1,24.4z"/>
	<path class="st0" d="M14.2,24.4l0.2-0.2v2.3c0,0.4,0.3,0.6,0.6,0.6s0.6-0.3,0.6-0.6v-2.3l0.2,0.2c0.1,0.1,0.3,0.2,0.5,0.2
		c0.2,0,0.3-0.1,0.5-0.2c0.3-0.3,0.3-0.7,0-0.9l-1.3-1.3c-0.1-0.1-0.1-0.1-0.2-0.1c-0.1,0-0.2,0-0.2,0c0,0,0,0,0,0c0,0,0,0,0,0
		c-0.1,0-0.2,0-0.2,0c-0.1,0-0.2,0.1-0.2,0.1l-1.3,1.3c-0.2,0.3-0.2,0.6,0,0.9C13.6,24.7,14,24.7,14.2,24.4z"/>
	<path class="st0" d="M16.4,28.5H8.6c-0.4,0-0.6,0.3-0.6,0.6s0.3,0.6,0.6,0.6h7.8c0.4,0,0.6-0.3,0.6-0.6S16.7,28.5,16.4,28.5z"/>
	<path class="st0" d="M34.8,24.6h-3.6l1-0.8c0,0,0,0,0,0c0.3-0.2,0.3-0.6,0.1-0.9s-0.6-0.3-0.9-0.1l-2.6,1.9c0,0,0,0,0,0
		c0,0,0,0,0,0c0,0,0,0,0,0c0,0,0,0,0,0.1c0,0,0,0.1-0.1,0.1c0,0,0,0.1,0,0.1c0,0,0,0,0,0.1c0,0,0,0,0,0c0,0,0,0.1,0,0.1
		c0,0,0,0.1,0,0.1c0,0,0,0.1,0.1,0.1c0,0,0.1,0.1,0.1,0.1c0,0,0,0,0,0l2.6,1.9c0.1,0.1,0.2,0.1,0.4,0.1c0.2,0,0.4-0.1,0.5-0.3
		c0.2-0.3,0.2-0.7-0.1-0.9l-1-0.8h3.6c0.9,0,1.6,0.7,1.6,1.6c0,0.9-0.7,1.6-1.6,1.6h-1.6c-0.4,0-0.6,0.3-0.6,0.6s0.3,0.6,0.6,0.6
		h1.6c1.6,0,2.9-1.3,2.9-2.9C37.8,25.9,36.5,24.6,34.8,24.6z"/>
</g>
</svg>
