<?xml version="1.0" encoding="utf-8"?>
<!-- Generator: Adobe Illustrator 24.0.2, SVG Export Plug-In . SVG Version: 6.00 Build 0)  -->
<svg version="1.1" id="Layer_1" xmlns="http://www.w3.org/2000/svg" xmlns:xlink="http://www.w3.org/1999/xlink" x="0px" y="0px"
	 width="21px" height="18px" viewBox="0 0 21 18" style="enable-background:new 0 0 21 18;" xml:space="preserve">
<style type="text/css">
	.st0{fill:#00597d;}
</style>
<path class="st0" d="M4.2,17.8l13.8,0l0-14.1l-3.8,0V3.6c0-0.6-0.2-1.2-0.5-1.7c-0.3-0.5-0.7-0.9-1.2-1.2c-0.5-0.3-1.1-0.5-1.7-0.5
	c-0.6,0-1.2,0.2-1.7,0.5C8.6,0.9,8.2,1.3,7.9,1.9C7.6,2.4,7.4,3,7.4,3.6v0.1l-0.1,0l-4.4,0l0,14.1l1.2,0L4.2,17.8z M8.6,3.6
	c0-0.6,0.2-1.2,0.7-1.6s1-0.7,1.6-0.7c0.6,0,1.2,0.2,1.6,0.7c0.4,0.4,0.7,1,0.7,1.6v0.1l-0.1,0l-4.4,0V3.6z M4.1,4.9l12.8,0l0,11.8
	l-12.8,0L4.1,4.9z"/>
</svg>
