<?xml version="1.0" encoding="utf-8"?>
<!-- Generator: Adobe Illustrator 24.0.2, SVG Export Plug-In . SVG Version: 6.00 Build 0)  -->
<svg version="1.1" id="Layer_1" xmlns="http://www.w3.org/2000/svg" xmlns:xlink="http://www.w3.org/1999/xlink" x="0px" y="0px"
	 width="36px" height="27px" viewBox="0 0 36 27" style="enable-background:new 0 0 36 27;" xml:space="preserve">
<style type="text/css">
	.st0{fill:#FFFFFF;}
</style>
<path class="st0" d="M33.5,16.2l-0.3,0l-0.2,0L1.8,7L1.4,6.8L1.1,6.6L0.8,6.4L0.6,6.1L0.4,5.8L0.3,5.5L0.2,5.2l0-0.4V1.1V0.9
	l0.1-0.2l0.1-0.2l0.2-0.1l0.2-0.1l0.2-0.1h0.2l0.2,0L28,8.1v-7l0-0.2l0.1-0.2l0.1-0.2l0.2-0.2l0.2-0.1l0.2,0H29l0.2,0l4.4,1.4
	l0.2,0.1l0.2,0.1l0.2,0.1L34.5,2l0.4,0.3l0.3,0.4l0.2,0.4l0.2,0.5l0.1,0.2l0,0.2l0,0.3v0.2v5.8v3.1V14v0.3l0,0.2l-0.1,0.3L35.6,15
	l-0.1,0.2l-0.2,0.2l-0.2,0.2l-0.2,0.2l-0.2,0.1L34.5,16l-0.3,0.1l-0.2,0l-0.2,0H33.5z M34.9,26.9l-0.2,0L8,19v7l0,0.2l-0.1,0.2
	l-0.1,0.2l-0.2,0.2l-0.2,0.1l-0.2,0H7l-0.2,0l-4.4-1.4l-0.2-0.1l-0.2-0.1l-0.2-0.1l-0.2-0.1l-0.4-0.3l-0.3-0.4L0.5,24l-0.2-0.5
	l-0.1-0.2l0-0.2l0-0.3v-0.2v-5.8v-3.1v-0.5v-0.3l0-0.2l0.1-0.2l0.1-0.2l0.1-0.2l0.2-0.2l0.2-0.2l0.2-0.2l0.2-0.1l0.2-0.1L1.8,11
	l0.2,0l0.2,0h0.3l0.2,0L3,11l31.2,9.2l0.4,0.1l0.3,0.2l0.3,0.2l0.2,0.3l0.2,0.3l0.1,0.3l0.1,0.4l0,0.4V26v0.2l-0.1,0.2l-0.1,0.2
	l-0.2,0.1l-0.2,0.1l-0.2,0.1H34.9z"/>
</svg>
