<?xml version="1.0" encoding="utf-8"?>
<!-- Generator: Adobe Illustrator 24.0.2, SVG Export Plug-In . SVG Version: 6.00 Build 0)  -->
<svg version="1.1" id="Layer_1" xmlns="http://www.w3.org/2000/svg" xmlns:xlink="http://www.w3.org/1999/xlink" x="0px" y="0px"
	 width="188px" height="27px" viewBox="0 0 188 27" style="enable-background:new 0 0 188 27;" xml:space="preserve">
<style type="text/css">
	.st0{fill:#FFFFFF;}
	.st1{opacity:0;fill:#FFFFFF;stroke:#FFFFFF;stroke-width:3.897905e-02;stroke-miterlimit:10;}
</style>
<path class="st0" d="M33.7,16.1l-0.3,0l-0.2,0L2,6.9L1.7,6.7L1.4,6.6L1.1,6.3L0.9,6.1L0.7,5.7L0.5,5.4L0.5,5.1l0-0.4V1V0.8l0.1-0.2
	l0.1-0.2l0.2-0.1L1,0.2l0.2-0.1h0.2l0.2,0L28.3,8V1l0-0.2l0.1-0.2l0.1-0.2l0.2-0.2l0.2-0.1l0.2,0h0.2l0.2,0l4.4,1.4l0.2,0.1l0.2,0.1
	l0.2,0.1L34.8,2l0.4,0.3l0.3,0.4l0.2,0.4l0.2,0.5L36,3.8L36,4l0,0.3v0.2v5.8v3.1v0.5v0.3l0,0.2l-0.1,0.3l-0.1,0.2l-0.1,0.2l-0.2,0.2
	l-0.2,0.2l-0.2,0.2l-0.2,0.1L34.7,16l-0.3,0.1l-0.2,0l-0.2,0H33.7z M35.1,26.8l-0.2,0L8.2,18.9v7l0,0.2l-0.1,0.2L8,26.5l-0.2,0.2
	l-0.2,0.1l-0.2,0H7.3l-0.2,0l-4.4-1.4l-0.2-0.1l-0.2-0.1l-0.2-0.1L1.7,25l-0.4-0.3L1,24.3l-0.2-0.4l-0.2-0.5l-0.1-0.2l0-0.2l0-0.3
	v-0.2v-5.8v-3.1V13v-0.3l0-0.2l0.1-0.2l0.1-0.2l0.1-0.2l0.2-0.2l0.2-0.2l0.2-0.2l0.2-0.1L1.8,11L2,10.9l0.2,0l0.2,0h0.3l0.2,0l0.3,0
	l31.2,9.2l0.4,0.1l0.3,0.2l0.3,0.2l0.2,0.3l0.2,0.3l0.1,0.3l0.1,0.4l0,0.4v3.7v0.2L36,26.3l-0.1,0.2l-0.2,0.1l-0.2,0.1l-0.2,0.1
	H35.1z"/>
<path class="st1" d="M28.3,8V1l0-0.2l0.1-0.2l0.1-0.2l0.2-0.2l0.2-0.1l0.2,0h0.2l0.2,0l4.4,1.4l0.2,0.1l0.2,0.1l0.2,0.1L34.8,2
	l0.4,0.3l0.3,0.4l0.2,0.4l0.2,0.5L36,3.8L36,4l0,0.3v0.2v5.8v3.1v0.5v0.3l0,0.2l-0.1,0.3l-0.1,0.2l-0.1,0.2l-0.2,0.2l-0.2,0.2
	l-0.2,0.2l-0.2,0.1L34.7,16l-0.3,0.1l-0.2,0l-0.2,0h-0.3l-0.3,0l-0.2,0L2,6.9L1.7,6.7L1.4,6.6L1.1,6.3L0.9,6.1L0.7,5.7L0.5,5.4
	L0.5,5.1l0-0.4V1V0.8l0.1-0.2l0.1-0.2l0.2-0.1L1,0.2l0.2-0.1h0.2l0.2,0L28.3,8z M8.2,18.9v7l0,0.2l-0.1,0.2L8,26.5l-0.2,0.2
	l-0.2,0.1l-0.2,0H7.3l-0.2,0l-4.4-1.4l-0.2-0.1l-0.2-0.1l-0.2-0.1L1.7,25l-0.4-0.3L1,24.3l-0.2-0.4l-0.2-0.5l-0.1-0.2l0-0.2l0-0.3
	v-0.2v-5.8v-3.1V13v-0.3l0-0.2l0.1-0.2l0.1-0.2l0.1-0.2l0.2-0.2l0.2-0.2l0.2-0.2l0.2-0.1L1.8,11L2,10.9l0.2,0l0.2,0h0.3l0.2,0l0.3,0
	l31.2,9.2l0.4,0.1l0.3,0.2l0.3,0.2l0.2,0.3l0.2,0.3l0.1,0.3l0.1,0.4l0,0.4v3.7v0.2L36,26.3l-0.1,0.2l-0.2,0.1l-0.2,0.1l-0.2,0.1
	h-0.2l-0.2,0L8.2,18.9z"/>
<path class="st0" d="M72.2,26.9h-4.1v-0.7h4.1h0.1l0.1,0l0.1-0.1l0.1,0l0.1-0.2l0-0.2l0-0.2l-0.1-0.2l-0.1-0.1l-0.1,0l-0.1,0l-0.2,0
	h-3.1h-0.3l-0.3-0.1l-0.2-0.1l-0.2-0.2L68,24.4L68,24.2l-0.1-0.2v-0.2v-0.2l0.1-0.2L68,23l0.2-0.2l0.2-0.2l0.2-0.1l0.3-0.1l0.3,0
	h4.1v0.7h-4.1H69l-0.1,0l-0.1,0.1l-0.1,0.1l-0.1,0.2l0,0.2l0,0.2l0.1,0.2l0.1,0.1l0.1,0.1l0.1,0h0.1h3.1l0.3,0l0.2,0.1l0.2,0.1
	l0.2,0.2l0.2,0.2l0.1,0.2l0.1,0.2v0.2v0.2L73.4,26l-0.1,0.2l-0.2,0.2L73,26.6l-0.2,0.1l-0.2,0.1H72.2z M77.3,26.9v-2.4H78h1.8h1.9
	h0.2l0.1,0l0.1-0.1l0.1-0.1l0.1-0.1l0.1-0.1v-0.1l0-0.1l0-0.2v-0.1l-0.1-0.1l-0.1-0.1l-0.1-0.1L82,23.2l-0.2,0h-0.2h-1.9H78h-0.7
	v-0.7h4.4l0.3,0l0.3,0.1l0.2,0.2l0.2,0.2l0.2,0.2l0.1,0.2l0.1,0.3v0.3v0.2L83,24.3l-0.1,0.2l-0.2,0.2l-0.2,0.2l-0.2,0.2L82,25.2
	l-0.3,0H78v1.7H77.3z M88.6,23.2l-0.2,0.1l-0.2,0.2L88,23.6l-0.1,0.2l-0.1,0.3l0,0.3l0,0.3l0,0.3l0,0.3l0.1,0.3l0.1,0.2l0.2,0.2
	l0.2,0.2l0.2,0.1l0.3,0H92l0.3,0l0.2-0.1l0.2-0.2l0.2-0.2l0.1-0.2l0.1-0.3l0-0.3l0-0.3l0-0.3l0-0.3L93,23.8l-0.1-0.2l-0.2-0.2
	l-0.2-0.2l-0.2-0.1l-0.3,0h-3.1L88.6,23.2z M92,26.9h-3.1h-0.2l-0.2,0l-0.2-0.1L88,26.7l-0.2-0.1l-0.2-0.1l-0.2-0.2l-0.1-0.2
	l-0.2-0.3l-0.2-0.4L87,25.1l0-0.4l0-0.4l0.1-0.4l0.2-0.4l0.2-0.4l0.1-0.2l0.2-0.1l0.2-0.1l0.2-0.1l0.2-0.1l0.2-0.1l0.2,0h0.2H92h0.2
	l0.2,0l0.2,0.1l0.2,0.1l0.2,0.1l0.2,0.1l0.2,0.1l0.1,0.2l0.2,0.4l0.2,0.4l0.1,0.4l0,0.4l0,0.4l-0.1,0.4l-0.2,0.4l-0.2,0.3l-0.1,0.2
	l-0.2,0.2l-0.2,0.1l-0.2,0.1l-0.2,0.1l-0.2,0.1l-0.2,0H92z M103,26.9l-1.2-1.6h-3.4v1.6h-0.7v-2.3h0.7h0.4h3.4h0.2l0.2,0l0.1-0.1
	l0.1-0.1l0.1-0.1l0-0.1l0-0.1v-0.2v-0.1l0-0.2l-0.1-0.1l-0.1-0.1l-0.1-0.1l-0.2,0l-0.2-0.1h-0.2h-3.4h-0.4h-0.7v-0.7h4.5l0.3,0
	l0.2,0.1l0.2,0.1l0.2,0.2l0.2,0.2l0.1,0.2l0.1,0.2l0.1,0.2v0.2v0.2l-0.1,0.2l-0.1,0.2l-0.2,0.2l-0.2,0.2l-0.3,0.2l-0.3,0.1l1.3,1.7
	H103z M110.1,26.9v-3.7h-2.4v-0.7h5.5v0.7h-2.4v3.7H110.1z M121.4,26.9h-4.1v-0.7h4.1h0.1l0.1,0l0.1-0.1l0.1,0l0.1-0.2l0-0.2v-0.2
	l-0.1-0.2l-0.1-0.1l-0.1,0l-0.1,0l-0.1,0h-3.1H118l-0.2-0.1l-0.2-0.1l-0.2-0.2l-0.2-0.2l-0.1-0.2l-0.1-0.2v-0.2v-0.2l0.1-0.2
	l0.1-0.2l0.2-0.2l0.2-0.2l0.2-0.1l0.2-0.1l0.3,0h4.1v0.7h-4.1h-0.1l-0.1,0l-0.1,0.1l-0.1,0.1l-0.1,0.2v0.2l0,0.2l0.1,0.2l0.1,0.1
	l0.1,0.1l0.1,0h0.1h3.1l0.3,0l0.3,0.1l0.2,0.1l0.2,0.2l0.2,0.2l0.1,0.2l0.1,0.2v0.2v0.2l-0.1,0.2l-0.1,0.2l-0.2,0.2l-0.2,0.2
	l-0.2,0.1l-0.3,0.1H121.4z M133,26.9l-0.4,0l-0.4-0.1l-0.4-0.1l-0.3-0.2l-0.3-0.2l-0.2-0.2l-0.2,0.2l-0.3,0.2l-0.3,0.2l-0.3,0.1
	l-0.4,0.1l-0.4,0h-0.4l-0.4,0l-0.4,0l-0.4-0.1l-0.4-0.2l-0.3-0.2l-0.2-0.2l-0.2-0.3l-0.1-0.2l0-0.2l0-0.2V25v-2.6h0.7V25v0.2l0,0.1
	l0,0.2l0.1,0.1l0.2,0.2l0.2,0.2L128,26l0.3,0.1l0.3,0.1h0.4h0.3l0.3-0.1l0.3-0.1l0.3-0.2l0.2-0.2l0.2-0.2l0.1-0.1l0-0.2l0-0.1V25
	v-2.6h0.7V25l0,0.2v0.1l0.1,0.1l0,0.2l0.2,0.2l0.2,0.2l0.3,0.2l0.3,0.1l0.4,0.1h0.3h0.4l0.3-0.1l0.3-0.1l0.3-0.2l0.2-0.2l0.2-0.2
	l0.1-0.2l0-0.1l0-0.1V25v-2.6h0.7V25v0.2l0,0.2l0,0.2l-0.1,0.2l-0.2,0.3l-0.2,0.3l-0.3,0.2l-0.4,0.2l-0.4,0.1l-0.4,0.1l-0.4,0H133z
	 M141.4,26.9h-0.2l-0.2,0l-0.2-0.1l-0.2-0.1l-0.2-0.1l-0.2-0.1l-0.1-0.2l-0.1-0.2l-0.2-0.3l-0.1-0.4l-0.1-0.4l0-0.4l0-0.4l0.1-0.4
	l0.1-0.4l0.2-0.4l0.1-0.2l0.1-0.1l0.2-0.1l0.2-0.1l0.2-0.1l0.2-0.1l0.2,0h0.2h3.7v0.7h-3.7l-0.2,0l-0.2,0l-0.2,0.1l-0.2,0.2
	l-0.1,0.2l-0.1,0.2l-0.1,0.2v0.2h4.8V25h-4.8v0.2l0.1,0.2l0.1,0.2l0.1,0.2l0.2,0.2l0.2,0.1l0.2,0.1h0.2h3.7v0.7H141.4z M150.5,23.2
	l-0.2,0l-0.2,0.1l-0.2,0.1l-0.2,0.2l-0.1,0.2l-0.1,0.2l0,0.2h4.3l0-0.2l-0.1-0.2l-0.1-0.2l-0.2-0.2l-0.2-0.1l-0.2-0.1l-0.2,0l-0.2,0
	h-2.1L150.5,23.2z M154,26.9V25h-4.3v1.9h-0.7v-2.6l0-0.4l0.1-0.4l0.2-0.3l0.2-0.3l0.3-0.2l0.3-0.2l0.4-0.1l0.4,0h2.1l0.4,0l0.4,0.1
	l0.3,0.2l0.3,0.2l0.2,0.3l0.2,0.3l0.1,0.4l0,0.4v2.6H154z M163.8,26.9l-1.2-1.6h-3.4v1.6h-0.7v-2.3h0.7h1.9h1.9h0.2l0.2,0l0.1-0.1
	l0.1-0.1l0.1-0.1l0-0.1l0-0.1v-0.2v-0.1l0-0.2l-0.1-0.1l-0.1-0.1l-0.1-0.1l-0.2,0l-0.2-0.1H163h-1.9h-1.9h-0.7v-0.7h4.5l0.3,0
	l0.3,0.1l0.2,0.1l0.2,0.2l0.2,0.2l0.1,0.2l0.1,0.2l0.1,0.2v0.2l0,0.2l0,0.2l-0.1,0.2l-0.2,0.2l-0.2,0.2l-0.2,0.2l-0.3,0.1l1.3,1.7
	H163.8z"/>
<path class="st1" d="M135.7,22.4V25v0.2l0,0.2l0,0.2l-0.1,0.2l-0.2,0.3l-0.2,0.3l-0.3,0.2l-0.4,0.2l-0.4,0.1l-0.4,0.1l-0.4,0H133
	l-0.4,0l-0.4-0.1l-0.4-0.1l-0.3-0.2l-0.3-0.2l-0.2-0.2l-0.2,0.2l-0.3,0.2l-0.3,0.2l-0.3,0.1l-0.4,0.1l-0.4,0h-0.4l-0.4,0l-0.4,0
	l-0.4-0.1l-0.4-0.2l-0.3-0.2l-0.2-0.2l-0.2-0.3l-0.1-0.2l0-0.2l0-0.2V25v-2.6h0.7V25v0.2l0,0.1l0,0.2l0.1,0.1l0.2,0.2l0.2,0.2
	L128,26l0.3,0.1l0.3,0.1h0.4h0.3l0.3-0.1l0.3-0.1l0.3-0.2l0.2-0.2l0.2-0.2l0.1-0.1l0-0.2l0-0.1V25v-2.6h0.7V25l0,0.2v0.1l0.1,0.1
	l0,0.2l0.2,0.2l0.2,0.2l0.3,0.2l0.3,0.1l0.4,0.1h0.3h0.4l0.3-0.1l0.3-0.1l0.3-0.2l0.2-0.2l0.2-0.2l0.1-0.2l0-0.1l0-0.1V25v-2.6
	H135.7z M113.2,23.1h-2.4v3.7h-0.7v-3.7h-2.4v-0.7h5.5V23.1z M102.6,25.2l1.3,1.7H103l-1.2-1.6h-3.4v1.6h-0.7v-2.3h0.7h0.4h3.4h0.2
	l0.2,0l0.1-0.1l0.1-0.1l0.1-0.1l0-0.1l0-0.1v-0.2v-0.1l0-0.2l-0.1-0.1l-0.1-0.1l-0.1-0.1l-0.2,0l-0.2-0.1h-0.2h-3.4h-0.4h-0.7v-0.7
	h4.5l0.3,0l0.2,0.1l0.2,0.1l0.2,0.2l0.2,0.2l0.1,0.2l0.1,0.2l0.1,0.2v0.2v0.2l-0.1,0.2l-0.1,0.2l-0.2,0.2l-0.2,0.2l-0.3,0.2
	L102.6,25.2z M88.9,26.2H92l0.3,0l0.2-0.1l0.2-0.2l0.2-0.2l0.1-0.2l0.1-0.3l0-0.3l0-0.3l0-0.3l0-0.3L93,23.8l-0.1-0.2l-0.2-0.2
	l-0.2-0.2l-0.2-0.1l-0.3,0h-3.1l-0.3,0l-0.2,0.1l-0.2,0.2L88,23.6l-0.1,0.2l-0.1,0.3l0,0.3l0,0.3l0,0.3l0,0.3l0.1,0.3l0.1,0.2
	l0.2,0.2l0.2,0.2l0.2,0.1L88.9,26.2z M88.9,26.9h-0.2l-0.2,0l-0.2-0.1L88,26.7l-0.2-0.1l-0.2-0.1l-0.2-0.2l-0.1-0.2l-0.2-0.3
	l-0.2-0.4L87,25.1l0-0.4l0-0.4l0.1-0.4l0.2-0.4l0.2-0.4l0.1-0.2l0.2-0.1l0.2-0.1l0.2-0.1l0.2-0.1l0.2-0.1l0.2,0h0.2H92h0.2l0.2,0
	l0.2,0.1l0.2,0.1l0.2,0.1l0.2,0.1l0.2,0.1l0.1,0.2l0.2,0.4l0.2,0.4l0.1,0.4l0,0.4l0,0.4l-0.1,0.4l-0.2,0.4l-0.2,0.3l-0.1,0.2
	l-0.2,0.2l-0.2,0.1l-0.2,0.1l-0.2,0.1l-0.2,0.1l-0.2,0H92H88.9z M78,26.9h-0.7v-2.4H78h1.8h1.9h0.2l0.1,0l0.1-0.1l0.1-0.1l0.1-0.1
	l0.1-0.1v-0.1l0-0.1l0-0.2v-0.1l-0.1-0.1l-0.1-0.1l-0.1-0.1L82,23.2l-0.2,0h-0.2h-1.9H78h-0.7v-0.7h4.4l0.3,0l0.3,0.1l0.2,0.2
	l0.2,0.2l0.2,0.2l0.1,0.2l0.1,0.3v0.3v0.2L83,24.3l-0.1,0.2l-0.2,0.2l-0.2,0.2l-0.2,0.2L82,25.2l-0.3,0H78V26.9z M68.1,26.9v-0.7
	h4.1h0.1l0.1,0l0.1-0.1l0.1,0l0.1-0.2l0-0.2l0-0.2l-0.1-0.2l-0.1-0.1l-0.1,0l-0.1,0l-0.2,0h-3.1h-0.3l-0.3-0.1l-0.2-0.1l-0.2-0.2
	L68,24.4L68,24.2l-0.1-0.2v-0.2v-0.2l0.1-0.2L68,23l0.2-0.2l0.2-0.2l0.2-0.1l0.3-0.1l0.3,0h4.1v0.7h-4.1H69l-0.1,0l-0.1,0.1
	l-0.1,0.1l-0.1,0.2l0,0.2l0,0.2l0.1,0.2l0.1,0.1l0.1,0.1l0.1,0h0.1h3.1l0.3,0l0.2,0.1l0.2,0.1l0.2,0.2l0.2,0.2l0.1,0.2l0.1,0.2v0.2
	v0.2L73.4,26l-0.1,0.2l-0.2,0.2L73,26.6l-0.2,0.1l-0.2,0.1h-0.3H68.1z M117.2,26.9v-0.7h4.1h0.1l0.1,0l0.1-0.1l0.1,0l0.1-0.2l0-0.2
	v-0.2l-0.1-0.2l-0.1-0.1l-0.1,0l-0.1,0l-0.1,0h-3.1H118l-0.2-0.1l-0.2-0.1l-0.2-0.2l-0.2-0.2l-0.1-0.2l-0.1-0.2v-0.2v-0.2l0.1-0.2
	l0.1-0.2l0.2-0.2l0.2-0.2l0.2-0.1l0.2-0.1l0.3,0h4.1v0.7h-4.1h-0.1l-0.1,0l-0.1,0.1l-0.1,0.1l-0.1,0.2v0.2l0,0.2l0.1,0.2l0.1,0.1
	l0.1,0.1l0.1,0h0.1h3.1l0.3,0l0.3,0.1l0.2,0.1l0.2,0.2l0.2,0.2l0.1,0.2l0.1,0.2v0.2v0.2l-0.1,0.2l-0.1,0.2l-0.2,0.2l-0.2,0.2
	l-0.2,0.1l-0.3,0.1h-0.3H117.2z M163.4,25.2l1.3,1.7h-0.9l-1.2-1.6h-3.4v1.6h-0.7v-2.3h0.7h1.9h1.9h0.2l0.2,0l0.1-0.1l0.1-0.1
	l0.1-0.1l0-0.1l0-0.1v-0.2v-0.1l0-0.2l-0.1-0.1l-0.1-0.1l-0.1-0.1l-0.2,0l-0.2-0.1H163h-1.9h-1.9h-0.7v-0.7h4.5l0.3,0l0.3,0.1
	l0.2,0.1l0.2,0.2l0.2,0.2l0.1,0.2l0.1,0.2l0.1,0.2v0.2l0,0.2l0,0.2l-0.1,0.2l-0.2,0.2l-0.2,0.2l-0.2,0.2L163.4,25.2z M150.8,23.1
	l-0.2,0l-0.2,0l-0.2,0.1l-0.2,0.1l-0.2,0.2l-0.1,0.2l-0.1,0.2l0,0.2h4.3l0-0.2l-0.1-0.2l-0.1-0.2l-0.2-0.2l-0.2-0.1l-0.2-0.1l-0.2,0
	l-0.2,0H150.8z M154.7,24.3v2.6H154V25h-4.3v1.9h-0.7v-2.6l0-0.4l0.1-0.4l0.2-0.3l0.2-0.3l0.3-0.2l0.3-0.2l0.4-0.1l0.4,0h2.1l0.4,0
	l0.4,0.1l0.3,0.2l0.3,0.2l0.2,0.3l0.2,0.3l0.1,0.4L154.7,24.3z M140.3,24.3h4.8V25h-4.8v0.2l0.1,0.2l0.1,0.2l0.1,0.2l0.2,0.2
	l0.2,0.1l0.2,0.1h0.2h3.7v0.7h-3.7h-0.2l-0.2,0l-0.2-0.1l-0.2-0.1l-0.2-0.1l-0.2-0.1l-0.1-0.2l-0.1-0.2l-0.2-0.3l-0.1-0.4l-0.1-0.4
	l0-0.4l0-0.4l0.1-0.4l0.1-0.4l0.2-0.4l0.1-0.2l0.1-0.1l0.2-0.1l0.2-0.1l0.2-0.1l0.2-0.1l0.2,0h0.2h3.7v0.7h-3.7l-0.2,0l-0.2,0
	l-0.2,0.1l-0.2,0.2l-0.1,0.2l-0.1,0.2l-0.1,0.2V24.3z"/>
<path class="st0" d="M61.1,18l-0.3,0l-0.4-0.1l-0.3-0.2l-0.3-0.2L48.7,7.8v9.6v0.2l-0.1,0.1l0,0.1l-0.1,0.1l-0.1,0l-0.1,0l-0.1,0
	l-0.1,0l-1.7-0.4l-0.3-0.1l-0.3-0.2L45.6,17l-0.2-0.2l-0.2-0.3l-0.1-0.3L45,16v-0.3V3.4V3.3l0-0.1l0-0.1L45.1,3l0.1,0l0.1-0.1l0.1,0
	h0.1H48l0.4,0l0.3,0.1L49,3.1l0.3,0.2L60.4,13V3.4l0-0.2l0-0.1l0.1-0.1l0.1-0.1l0.1-0.1l0.1,0h0.1l0.1,0l1.7,0.4L63,3.4l0.2,0.2
	l0.3,0.2L63.7,4l0.2,0.3L64,4.5l0.1,0.3l0,0.3v12.3l0,0.1l0,0.1l0,0.1l-0.1,0.1l-0.1,0.1l-0.1,0.1h-0.1l-0.1,0H61.1z M73.2,6.7
	L73,6.8l-0.2,0.2l-0.2,0.2l-0.2,0.2l-0.2,0.2l-0.2,0.2L72,8l-0.1,0.3l-0.1,0.3L71.7,9l-0.1,0.7l0,0.7l0,0.7l0.1,0.7l0.1,0.4l0.1,0.3
	l0.1,0.3l0.1,0.3l0.2,0.2l0.2,0.2l0.2,0.2l0.2,0.2L73,14l0.2,0.1l0.2,0.1h0.2h9h0.2l0.2-0.1l0.2-0.1l0.2-0.1l0.2-0.2l0.2-0.2
	l0.2-0.2l0.2-0.2l0.1-0.3l0.1-0.3l0.1-0.3l0.1-0.4l0.1-0.7l0-0.7l0-0.7L84.6,9l-0.1-0.3l-0.1-0.3L84.4,8l-0.1-0.3l-0.2-0.2l-0.2-0.2
	l-0.2-0.2l-0.2-0.2l-0.2-0.2l-0.2-0.1l-0.2-0.1h-0.2h-9h-0.2L73.2,6.7z M73.7,18l-0.7,0l-0.7-0.2l-0.6-0.2l-0.5-0.3L70.6,17
	l-0.5-0.4l-0.4-0.5l-0.4-0.5L69,15.1l-0.3-0.6l-0.3-0.6l-0.2-0.7l-0.2-0.7L68,11.8l-0.1-0.7v-0.7V9.7L68,9l0.1-0.7l0.2-0.7L68.4,7
	l0.3-0.6L69,5.7l0.4-0.5l0.4-0.5l0.4-0.5l0.5-0.4l0.5-0.4l0.5-0.3L72.3,3L73,2.9l0.7,0h9l0.7,0L84.1,3l0.6,0.2l0.5,0.3l0.5,0.4
	l0.5,0.4l0.4,0.5l0.4,0.5l0.4,0.5l0.3,0.6L88,7l0.2,0.7l0.2,0.7L88.4,9l0.1,0.7v0.7v0.7l-0.1,0.7l-0.1,0.7l-0.2,0.7L88,13.9
	l-0.3,0.6l-0.3,0.6l-0.4,0.5l-0.4,0.5l-0.4,0.5L85.8,17l-0.5,0.4l-0.5,0.3l-0.6,0.2l-0.7,0.2l-0.7,0H73.7z M108.3,18l-0.2,0l-0.2,0
	l-0.2,0l-0.2-0.1l-0.2-0.1l-0.2-0.2l-0.2-0.2l-0.1-0.2l-2.9-4H96v4.2v0.2l0,0.1l-0.1,0.1l-0.1,0.1l-0.1,0l-0.1,0l-0.1,0l-0.2,0
	l-1.6-0.4l-0.3-0.1l-0.3-0.2L92.8,17l-0.2-0.2l-0.2-0.3l-0.1-0.3L92.3,16l0-0.3V10l0-0.1l0-0.1l0.1-0.1l0.1-0.1l0.2-0.1h0.2h13.6
	l0.3,0l0.2-0.1l0.2-0.1l0.2-0.2l0.2-0.2l0.1-0.3l0-0.2l0-0.3l0-0.3l0-0.2l-0.1-0.3L107.2,7l-0.2-0.2l-0.2-0.1l-0.2-0.1h-0.3H93
	l-0.3,0l-0.3-0.1l-0.3-0.1l-0.2-0.2L91.7,6l-0.2-0.2l-0.2-0.3l-0.1-0.3l-0.5-1.7V3.4V3.3l0-0.1l0.1-0.1L91,2.9l0.1,0l0.1,0l0.1,0
	h16.2l0.5,0l0.4,0.1l0.4,0.1l0.4,0.2l0.4,0.2l0.3,0.2L110,4l0.3,0.3l0.2,0.4l0.2,0.4l0.2,0.4l0.2,0.4l0.1,0.4l0.1,0.5l0.1,0.4l0,0.5
	V8v0.5l0,0.5l-0.1,0.4l-0.1,0.4l-0.1,0.4l-0.2,0.4l-0.2,0.4l-0.2,0.4l-0.2,0.4l-0.3,0.3l-0.3,0.3l-0.3,0.3l-0.3,0.2l-0.4,0.2
	l-0.4,0.1l2.8,4l0.1,0.1l0,0.2v0.2l-0.1,0.2l-0.1,0.1l-0.1,0.1l-0.1,0l-0.2,0H108.3z M115.7,18l-0.1,0h-0.1l-0.1-0.1l-0.1-0.1
	l-0.1-0.1l-0.1-0.1v-0.1l0-0.1V9.1l0-0.1V8.9l0.1-0.1l0.1-0.1l0.1,0l0.1-0.1l0.1,0h0.1h2.6h0.1l0.1,0l0.1,0.1l0.1,0l0.1,0.1l0,0.1
	l0,0.1l0,0.1v5.1h9.6h0.2l0.2-0.1l0.2-0.1l0.2-0.1l0.2-0.2l0.2-0.2l0.2-0.2L130,13l0.1-0.3l0.1-0.3l0.1-0.3l0.1-0.4l0.1-0.7l0-0.7
	l0-0.7L130.4,9l-0.1-0.3l-0.1-0.3L130.1,8L130,7.8l-0.2-0.2l-0.2-0.2l-0.2-0.2l-0.2-0.2l-0.2-0.2l-0.2-0.1l-0.2-0.1h-0.2h-12.6
	l-0.3,0l-0.3-0.1L115,6.4l-0.2-0.2L114.5,6l-0.2-0.2l-0.2-0.3l-0.1-0.3l-0.5-1.7V3.4V3.3l0-0.1l0.1-0.1l0.1-0.1l0.1,0l0.1,0l0.1,0
	h14.3l0.7,0l0.7,0.2l0.6,0.2l0.5,0.3l0.5,0.4l0.5,0.4l0.4,0.5l0.4,0.5l0.4,0.5l0.3,0.6l0.3,0.6l0.2,0.7l0.2,0.7l0.1,0.7l0.1,0.7v0.7
	v0.7l-0.1,0.7l-0.1,0.7l-0.2,0.7l-0.2,0.7l-0.3,0.6l-0.3,0.6l-0.4,0.5l-0.4,0.5l-0.4,0.5l-0.5,0.4l-0.5,0.4l-0.5,0.3l-0.6,0.2
	l-0.7,0.2l-0.7,0H115.7z M137.1,18l-0.1,0l-0.1,0l-0.1-0.1l-0.1-0.1l-0.1-0.1l0-0.1v-0.1v-0.2l0.5-1.6l0.1-0.3l0.1-0.2l0.2-0.3
	l0.2-0.2l0.2-0.2l0.3-0.1l0.3-0.1l0.3,0h14h0.2l0.1-0.1l0.1-0.1l0.1-0.1l0.1-0.2l0-0.2v-0.2l0-0.2l0-0.2v-0.2l0-0.2l-0.1-0.2
	l-0.1-0.1l-0.1-0.1l-0.1-0.1h-0.2h-10.9l-0.5,0l-0.4-0.1l-0.4-0.1l-0.4-0.2l-0.4-0.2l-0.3-0.3l-0.3-0.3l-0.3-0.3l-0.2-0.4l-0.2-0.4
	l-0.2-0.4l-0.1-0.4l-0.1-0.4l-0.1-0.4l0-0.4l0-0.5l0-0.4l0-0.4l0.1-0.4l0.1-0.4l0.1-0.4l0.2-0.4l0.2-0.4l0.2-0.4l0.2-0.3l0.3-0.3
	l0.3-0.3l0.4-0.2l0.4-0.2l0.4-0.1l0.4-0.1l0.5,0h14.7l0.1,0l0.1,0l0.1,0l0.1,0.1l0.1,0.1l0,0.1v0.1v0.1l-0.5,1.7l-0.1,0.3l-0.2,0.3
	L156.3,6L156,6.2l-0.2,0.2l-0.3,0.1l-0.3,0.1l-0.3,0h-12.5h-0.1l-0.2,0.1l-0.1,0.1L142,6.9L141.9,7l0,0.2l0,0.2v0.2v0.2l0,0.2l0,0.2
	l0.1,0.1l0.1,0.2l0.1,0.1l0.2,0.1h0.1h10.9l0.5,0l0.4,0.1l0.4,0.1l0.4,0.2l0.4,0.2l0.3,0.3l0.3,0.3l0.3,0.3l0.2,0.4l0.2,0.4l0.2,0.4
	l0.1,0.4l0.1,0.4l0.1,0.4l0,0.4v0.4v0.5l0,0.4l-0.1,0.4l-0.1,0.4l-0.1,0.4l-0.2,0.4l-0.2,0.4l-0.2,0.4l-0.3,0.3l-0.3,0.3l-0.3,0.3
	l-0.4,0.2l-0.4,0.2l-0.4,0.1l-0.4,0.1l-0.5,0H137.1z M161.4,17.9l-0.1,0l-0.1,0l-0.1-0.1l-0.1-0.1l0-0.1v-0.2v-14V3.3l0-0.1l0.1-0.1
	l0.1-0.1l0.1-0.1l0.1,0h0.1l0.2,0l1.6,0.4l0.3,0.1l0.3,0.2l0.2,0.2l0.2,0.2l0.2,0.3l0.1,0.3l0.1,0.3l0,0.3v10.6l0,0.3l-0.1,0.3
	l-0.1,0.3l-0.2,0.3l-0.2,0.2l-0.2,0.2l-0.3,0.2l-0.3,0.1l-1.6,0.4l-0.2,0L161.4,17.9z M176.9,18l-0.2,0l-0.2,0l-0.2,0l-0.2-0.1
	l-0.2-0.1l-0.2-0.2l-0.2-0.2l-0.2-0.2l-3.5-4.9h-4.8l-0.1,0l-0.1,0l-0.1,0l-0.1-0.1l-0.1-0.1l0-0.1l0-0.1v-0.1V9.1V9l0-0.1l0-0.1
	l0.1-0.1l0.1,0l0.1-0.1h0.1l0.1,0h4.8l3.5-4.9l0.2-0.2l0.2-0.2l0.2-0.2l0.2-0.1l0.2-0.1l0.2-0.1l0.2,0h0.2h2.6l0.2,0l0.1,0l0.1,0.1
	l0.1,0.1l0,0.2v0.2v0.2L180,3.7l-4.8,6.7l4.8,6.7l0.1,0.1v0.2v0.2l0,0.2l-0.1,0.1l-0.1,0.1l-0.1,0l-0.2,0H176.9z M184.4,18l-0.1,0
	h-0.1l-0.1-0.1l-0.1-0.1l-0.1-0.1l0-0.1l0-0.1v-0.1v-14V3.3l0-0.1l0-0.1L184,3l0.1,0l0.1-0.1l0.1,0h0.1h2.6h0.1l0.1,0l0.1,0.1l0.1,0
	l0,0.1l0.1,0.1l0,0.1v0.1v14v0.1l0,0.1l-0.1,0.1l0,0.1l-0.1,0.1l-0.1,0.1h-0.1l-0.1,0H184.4z"/>
<path class="st1" d="M171.9,12.3h-4.8l-0.1,0l-0.1,0l-0.1,0l-0.1-0.1l-0.1-0.1l0-0.1l0-0.1v-0.1V9.1V9l0-0.1l0-0.1l0.1-0.1l0.1,0
	l0.1-0.1h0.1l0.1,0h4.8l3.5-4.9l0.2-0.2l0.2-0.2l0.2-0.2l0.2-0.1l0.2-0.1l0.2-0.1l0.2,0h0.2h2.6l0.2,0l0.1,0l0.1,0.1l0.1,0.1l0,0.2
	v0.2v0.2L180,3.7l-4.8,6.7l4.8,6.7l0.1,0.1v0.2v0.2l0,0.2l-0.1,0.1l-0.1,0.1l-0.1,0l-0.2,0h-2.6l-0.2,0l-0.2,0l-0.2,0l-0.2-0.1
	l-0.2-0.1l-0.2-0.2l-0.2-0.2l-0.2-0.2L171.9,12.3z M45,3.4V3.3l0-0.1l0-0.1L45.1,3l0.1,0l0.1-0.1l0.1,0h0.1H48l0.4,0l0.3,0.1L49,3.1
	l0.3,0.2L60.4,13V3.4l0-0.2l0-0.1l0.1-0.1l0.1-0.1l0.1-0.1l0.1,0h0.1l0.1,0l1.7,0.4L63,3.4l0.2,0.2l0.3,0.2L63.7,4l0.2,0.3L64,4.5
	l0.1,0.3l0,0.3v12.3l0,0.1l0,0.1l0,0.1l-0.1,0.1l-0.1,0.1l-0.1,0.1h-0.1l-0.1,0h-2.5l-0.3,0l-0.4-0.1l-0.3-0.2l-0.3-0.2L48.7,7.8
	v9.6v0.2l-0.1,0.1l0,0.1l-0.1,0.1l-0.1,0l-0.1,0l-0.1,0l-0.1,0l-1.7-0.4l-0.3-0.1l-0.3-0.2L45.6,17l-0.2-0.2l-0.2-0.3l-0.1-0.3
	L45,16v-0.3V3.4z M96,17.4v0.2l0,0.1l-0.1,0.1l-0.1,0.1l-0.1,0l-0.1,0l-0.1,0l-0.2,0l-1.6-0.4l-0.3-0.1l-0.3-0.2L92.8,17l-0.2-0.2
	l-0.2-0.3l-0.1-0.3L92.3,16l0-0.3V10l0-0.1l0-0.1l0.1-0.1l0.1-0.1l0.2-0.1h0.2h13.6l0.3,0l0.2-0.1l0.2-0.1l0.2-0.2l0.2-0.2l0.1-0.3
	l0-0.2l0-0.3l0-0.3l0-0.2l-0.1-0.3L107.2,7l-0.2-0.2l-0.2-0.1l-0.2-0.1h-0.3H93l-0.3,0l-0.3-0.1l-0.3-0.1l-0.2-0.2L91.7,6l-0.2-0.2
	l-0.2-0.3l-0.1-0.3l-0.5-1.7V3.4V3.3l0-0.1l0.1-0.1L91,2.9l0.1,0l0.1,0l0.1,0h16.2l0.5,0l0.4,0.1l0.4,0.1l0.4,0.2l0.4,0.2l0.3,0.2
	L110,4l0.3,0.3l0.2,0.4l0.2,0.4l0.2,0.4l0.2,0.4l0.1,0.4l0.1,0.5l0.1,0.4l0,0.5V8v0.5l0,0.5l-0.1,0.4l-0.1,0.4l-0.1,0.4l-0.2,0.4
	l-0.2,0.4l-0.2,0.4l-0.2,0.4l-0.3,0.3l-0.3,0.3l-0.3,0.3l-0.3,0.2l-0.4,0.2l-0.4,0.1l2.8,4l0.1,0.1l0,0.2v0.2l-0.1,0.2l-0.1,0.1
	l-0.1,0.1l-0.1,0l-0.2,0h-2.6l-0.2,0l-0.2,0l-0.2,0l-0.2-0.1l-0.2-0.1l-0.2-0.2l-0.2-0.2l-0.1-0.2l-2.9-4H96V17.4z M115.7,8.5h2.6
	h0.1l0.1,0l0.1,0.1l0.1,0l0.1,0.1l0,0.1l0,0.1l0,0.1v5.1h9.6h0.2l0.2-0.1l0.2-0.1l0.2-0.1l0.2-0.2l0.2-0.2l0.2-0.2L130,13l0.1-0.3
	l0.1-0.3l0.1-0.3l0.1-0.4l0.1-0.7l0-0.7l0-0.7L130.4,9l-0.1-0.3l-0.1-0.3L130.1,8L130,7.8l-0.2-0.2l-0.2-0.2l-0.2-0.2l-0.2-0.2
	l-0.2-0.2l-0.2-0.1l-0.2-0.1h-0.2h-12.6l-0.3,0l-0.3-0.1L115,6.4l-0.2-0.2L114.5,6l-0.2-0.2l-0.2-0.3l-0.1-0.3l-0.5-1.7V3.4V3.3
	l0-0.1l0.1-0.1l0.1-0.1l0.1,0l0.1,0l0.1,0h14.3l0.7,0l0.7,0.2l0.6,0.2l0.5,0.3l0.5,0.4l0.5,0.4l0.4,0.5l0.4,0.5l0.4,0.5l0.3,0.6
	l0.3,0.6l0.2,0.7l0.2,0.7l0.1,0.7l0.1,0.7v0.7v0.7l-0.1,0.7l-0.1,0.7l-0.2,0.7l-0.2,0.7l-0.3,0.6l-0.3,0.6l-0.4,0.5l-0.4,0.5
	l-0.4,0.5l-0.5,0.4l-0.5,0.4l-0.5,0.3l-0.6,0.2l-0.7,0.2l-0.7,0h-12.7l-0.1,0h-0.1l-0.1-0.1l-0.1-0.1l-0.1-0.1l-0.1-0.1v-0.1l0-0.1
	V9.1l0-0.1V8.9l0.1-0.1l0.1-0.1l0.1,0l0.1-0.1l0.1,0H115.7z M153.3,8.5l0.5,0l0.4,0.1l0.4,0.1l0.4,0.2l0.4,0.2l0.3,0.3l0.3,0.3
	l0.3,0.3l0.2,0.4l0.2,0.4l0.2,0.4l0.1,0.4l0.1,0.4l0.1,0.4l0,0.4v0.4v0.5l0,0.4l-0.1,0.4l-0.1,0.4l-0.1,0.4l-0.2,0.4l-0.2,0.4
	l-0.2,0.4l-0.3,0.3l-0.3,0.3l-0.3,0.3l-0.4,0.2l-0.4,0.2l-0.4,0.1l-0.4,0.1l-0.5,0h-16.3l-0.1,0l-0.1,0l-0.1-0.1l-0.1-0.1l-0.1-0.1
	l0-0.1v-0.1v-0.2l0.5-1.6l0.1-0.3l0.1-0.2l0.2-0.3l0.2-0.2l0.2-0.2l0.3-0.1l0.3-0.1l0.3,0h14h0.2l0.1-0.1l0.1-0.1l0.1-0.1l0.1-0.2
	l0-0.2v-0.2l0-0.2l0-0.2v-0.2l0-0.2l-0.1-0.2l-0.1-0.1l-0.1-0.1l-0.1-0.1h-0.2h-10.9l-0.5,0l-0.4-0.1l-0.4-0.1l-0.4-0.2l-0.4-0.2
	l-0.3-0.3l-0.3-0.3l-0.3-0.3l-0.2-0.4l-0.2-0.4l-0.2-0.4l-0.1-0.4l-0.1-0.4l-0.1-0.4l0-0.4l0-0.5l0-0.4l0-0.4l0.1-0.4l0.1-0.4
	l0.1-0.4l0.2-0.4l0.2-0.4l0.2-0.4l0.2-0.3l0.3-0.3l0.3-0.3l0.4-0.2l0.4-0.2l0.4-0.1l0.4-0.1l0.5,0h14.7l0.1,0l0.1,0l0.1,0l0.1,0.1
	l0.1,0.1l0,0.1v0.1v0.1l-0.5,1.7l-0.1,0.3l-0.2,0.3L156.3,6L156,6.2l-0.2,0.2l-0.3,0.1l-0.3,0.1l-0.3,0h-12.5h-0.1l-0.2,0.1
	l-0.1,0.1L142,6.9L141.9,7l0,0.2l0,0.2v0.2v0.2l0,0.2l0,0.2l0.1,0.1l0.1,0.2l0.1,0.1l0.2,0.1h0.1H153.3z M82.7,14.2h-9h-0.2
	l-0.2-0.1L73,14l-0.2-0.1l-0.2-0.2l-0.2-0.2l-0.2-0.2L72.1,13L72,12.8l-0.1-0.3l-0.1-0.3l-0.1-0.4l-0.1-0.7l0-0.7l0-0.7L71.7,9
	l0.1-0.3l0.1-0.3L72,8l0.1-0.3l0.2-0.2l0.2-0.2l0.2-0.2l0.2-0.2L73,6.8l0.2-0.1l0.2-0.1h0.2h9h0.2l0.2,0.1l0.2,0.1l0.2,0.2l0.2,0.2
	l0.2,0.2l0.2,0.2l0.2,0.2L84.4,8l0.1,0.3l0.1,0.3L84.6,9l0.1,0.7l0,0.7l0,0.7l-0.1,0.7l-0.1,0.4l-0.1,0.3l-0.1,0.3L84.3,13l-0.2,0.2
	l-0.2,0.2l-0.2,0.2l-0.2,0.2L83.4,14l-0.2,0.1l-0.2,0.1H82.7z M73.7,18h9l0.7,0l0.7-0.2l0.6-0.2l0.5-0.3l0.5-0.4l0.5-0.4l0.4-0.5
	l0.4-0.5l0.4-0.5l0.3-0.6l0.3-0.6l0.2-0.7l0.2-0.7l0.1-0.7l0.1-0.7v-0.7V9.7L88.4,9l-0.1-0.7l-0.2-0.7L88,7l-0.3-0.6l-0.3-0.6
	l-0.4-0.5l-0.4-0.5l-0.4-0.5l-0.5-0.4l-0.5-0.4l-0.5-0.3L84.1,3l-0.7-0.2l-0.7,0h-9l-0.7,0L72.3,3l-0.6,0.2l-0.5,0.3l-0.5,0.4
	l-0.5,0.4l-0.4,0.5l-0.4,0.5L69,5.7l-0.3,0.6L68.4,7l-0.2,0.7l-0.2,0.7L68,9l-0.1,0.7v0.7v0.7l0.1,0.7l0.1,0.7l0.2,0.7l0.2,0.7
	l0.3,0.6l0.3,0.6l0.4,0.5l0.4,0.5l0.4,0.5l0.5,0.4l0.5,0.4l0.5,0.3l0.6,0.2l0.7,0.2L73.7,18z M187.6,17.4v0.1l0,0.1l-0.1,0.1l0,0.1
	l-0.1,0.1l-0.1,0.1h-0.1l-0.1,0h-2.6l-0.1,0h-0.1l-0.1-0.1l-0.1-0.1l-0.1-0.1l0-0.1l0-0.1v-0.1v-14V3.3l0-0.1l0-0.1L184,3l0.1,0
	l0.1-0.1l0.1,0h0.1h2.6h0.1l0.1,0l0.1,0.1l0.1,0l0,0.1l0.1,0.1l0,0.1v0.1V17.4z M164.7,15.7V5.1l0-0.3l-0.1-0.3l-0.1-0.3L164.3,4
	l-0.2-0.2l-0.2-0.2l-0.3-0.2l-0.3-0.1l-1.6-0.4l-0.2,0h-0.1l-0.1,0l-0.1,0.1l-0.1,0.1L161,3.1l0,0.1v0.2v14v0.2l0,0.1l0.1,0.1
	l0.1,0.1l0.1,0l0.1,0l0.1,0l0.2,0l1.6-0.4l0.3-0.1l0.3-0.2l0.2-0.2l0.2-0.2l0.2-0.3l0.1-0.3l0.1-0.3L164.7,15.7z"/>
</svg>
