<?xml version="1.0" encoding="utf-8"?>
<!-- Generator: Adobe Illustrator 24.0.2, SVG Export Plug-In . SVG Version: 6.00 Build 0)  -->
<svg version="1.1" id="Layer_1" xmlns="http://www.w3.org/2000/svg" xmlns:xlink="http://www.w3.org/1999/xlink" x="0px" y="0px"
	 width="21px" height="18px" viewBox="0 0 21 18" style="enable-background:new 0 0 21 18;" xml:space="preserve">
<style type="text/css">
	.st0{fill:#ffffff;}
</style>
<path class="st0" d="M12,1.1c-1.1-0.6-2.2-0.9-3.5-0.9c-1.2,0-2.4,0.3-3.5,0.9C4,1.7,3.2,2.5,2.6,3.6C2,4.6,1.7,5.8,1.7,7
	c0,1.2,0.3,2.4,0.9,3.5c0.6,1,1.4,1.9,2.5,2.5c1.1,0.6,2.2,0.9,3.5,0.9c0.8,0,1.6-0.1,2.3-0.4c0.7-0.3,1.4-0.7,2-1.1l0.1-0.1
	l0.1,0.1l5.5,5.5l0.8-0.8l-5.6-5.6l0.1-0.1c0.5-0.6,0.9-1.3,1.1-2c0.3-0.7,0.4-1.5,0.4-2.3c0-1.2-0.3-2.4-0.9-3.5
	C13.9,2.5,13,1.7,12,1.1z M13.5,9.9c-0.5,0.9-1.2,1.6-2.1,2.1c-0.9,0.5-1.8,0.8-2.9,0.8c-1,0-2-0.3-2.9-0.8
	c-0.9-0.5-1.6-1.2-2.1-2.1C3.1,9,2.8,8.1,2.8,7s0.3-2,0.8-2.9c0.5-0.9,1.2-1.6,2.1-2.1s1.8-0.8,2.9-0.8c1,0,2,0.3,2.9,0.8
	c0.9,0.5,1.6,1.2,2.1,2.1C14,5,14.2,6,14.2,7S14,9,13.5,9.9z"/>
</svg>
