<?xml version="1.0" encoding="utf-8"?>
<!-- Generator: Adobe Illustrator 24.0.2, SVG Export Plug-In . SVG Version: 6.00 Build 0)  -->
<svg version="1.1" id="Layer_1" xmlns="http://www.w3.org/2000/svg" xmlns:xlink="http://www.w3.org/1999/xlink" x="0px" y="0px"
	 width="21px" height="18px" viewBox="0 0 21 18" style="enable-background:new 0 0 21 18;" xml:space="preserve">
<style type="text/css">
	.st0{fill:#ffffff;}
</style>
<path class="st0" d="M6.1,12.2C7,11.6,8,11.1,9.1,10.9l0.1,0c0.5-0.1,1.3-0.1,1.3-0.1c0.1,0,0.9,0,1.3,0.1l0.1,0
	c1.1,0.2,2.1,0.7,2.9,1.3c0.9,0.7,1.6,1.5,2.2,2.6c0.5,1,0.8,2,0.8,3.1H19c0-1.1-0.3-2.1-0.7-3.1c-0.4-1-1.1-1.9-1.9-2.7
	c-0.8-0.8-1.8-1.4-2.8-1.8L13.2,10l0.3-0.2c0.7-0.5,1.3-1.1,1.7-1.9c0.4-0.8,0.6-1.6,0.6-2.5c0-1-0.2-1.9-0.7-2.7
	C14.6,2,14,1.3,13.2,0.9c-0.8-0.5-1.7-0.7-2.7-0.7c-1,0-1.9,0.2-2.7,0.7C7,1.3,6.4,2,5.9,2.8C5.4,3.6,5.2,4.5,5.2,5.5
	c0,0.9,0.2,1.7,0.6,2.5c0.4,0.8,1,1.4,1.7,1.9L7.8,10l-0.4,0.2c-1.1,0.4-2,1-2.8,1.8c-0.8,0.8-1.5,1.7-1.9,2.7
	c-0.4,1-0.7,2.1-0.7,3.1h1.1c0-1.1,0.3-2.1,0.8-3.1C4.5,13.8,5.2,12.9,6.1,12.2z M6.9,7.5C6.5,6.9,6.3,6.2,6.3,5.5
	c0-0.8,0.2-1.5,0.6-2.1c0.4-0.6,0.9-1.1,1.5-1.5C9,1.5,9.7,1.3,10.5,1.3s1.5,0.2,2.1,0.6c0.6,0.4,1.1,0.9,1.5,1.5
	c0.4,0.6,0.6,1.3,0.6,2.1c0,0.8-0.2,1.5-0.6,2.1c-0.4,0.6-0.9,1.1-1.5,1.5c-0.6,0.4-1.3,0.6-2.1,0.6C9.7,9.6,9,9.4,8.4,9.1
	C7.8,8.7,7.3,8.2,6.9,7.5z"/>
</svg>
