<?xml version="1.0" encoding="utf-8"?>
<!-- Generator: Adobe Illustrator 24.0.2, SVG Export Plug-In . SVG Version: 6.00 Build 0)  -->
<svg version="1.1" id="Layer_1" xmlns="http://www.w3.org/2000/svg" xmlns:xlink="http://www.w3.org/1999/xlink" x="0px" y="0px"
	 width="21px" height="18px" viewBox="0 0 21 18" style="enable-background:new 0 0 21 18;" xml:space="preserve">
<style type="text/css">
	.st0{fill:#ffffff;}
</style>
<path class="st0" d="M2.9,0.9c-0.8,0.5-1.5,1.2-2,2C0.4,3.7,0.2,4.6,0.2,5.6c0,0.8,0.3,1.7,0.9,2.6C1.3,8.6,1.6,9,2,9.3l8.5,8.6
	L19.3,9c0.2-0.2,0.4-0.5,0.6-0.8c0.3-0.4,0.5-0.8,0.6-1.2c0.2-0.5,0.3-1,0.3-1.4c0-1-0.2-1.9-0.7-2.7c-0.5-0.8-1.2-1.5-2-2
	c-0.8-0.5-1.8-0.7-2.7-0.7c-1.8,0-3.4,0.7-4.8,2.2l-0.1,0.1l-0.1-0.1C9,0.9,7.4,0.2,5.6,0.2C4.6,0.2,3.7,0.4,2.9,0.9z M8.7,2.4
	c0.3,0.2,0.7,0.5,1,0.8L10,3.6l0.5,0.5l0.4-0.5l0.4-0.4c0.3-0.3,0.7-0.5,1-0.8c0.5-0.3,1-0.6,1.4-0.7c0.6-0.2,1.1-0.4,1.7-0.4
	c0.8,0,1.5,0.2,2.2,0.6c0.7,0.4,1.2,0.9,1.6,1.6c0.4,0.7,0.6,1.4,0.6,2.1c0,0.4-0.1,0.8-0.4,1.3c-0.2,0.4-0.4,0.7-0.7,1.1l-0.4,0.5
	l-7.7,7.7l-0.1-0.1L2.6,8.2C2.4,8,2.2,7.8,2,7.5C1.8,7.2,1.7,6.9,1.6,6.6c-0.1-0.4-0.2-0.7-0.2-1c0-0.8,0.2-1.5,0.6-2.1
	c0.4-0.7,0.9-1.2,1.6-1.6c0.7-0.4,1.4-0.6,2.2-0.6c0.5,0,1.1,0.1,1.7,0.4C7.8,1.9,8.2,2.1,8.7,2.4z"/>
</svg>
