<?xml version="1.0" encoding="utf-8"?>
<!-- Generator: Adobe Illustrator 24.0.2, SVG Export Plug-In . SVG Version: 6.00 Build 0)  -->
<svg version="1.1" id="Layer_1" xmlns="http://www.w3.org/2000/svg" xmlns:xlink="http://www.w3.org/1999/xlink" x="0px" y="0px"
	 width="21px" height="18px" viewBox="0 0 21 18" style="enable-background:new 0 0 21 18;" xml:space="preserve">
<style type="text/css">
	.st0{fill:#1D1D1D;}
</style>
<path class="st0" d="M20.1,2.9c-0.5-0.8-1.2-1.5-2-2c-0.8-0.5-1.8-0.7-2.7-0.7c-1.8,0-3.4,0.7-4.8,2.2l-0.1,0.1l-0.1-0.1
	C9,0.9,7.4,0.2,5.6,0.2c-1,0-1.9,0.2-2.7,0.7c-0.8,0.5-1.5,1.2-2,2C0.4,3.7,0.2,4.6,0.2,5.6c0,0.8,0.3,1.7,0.9,2.6
	C1.3,8.6,1.6,9,2,9.3l8.5,8.6L19.3,9c0.2-0.2,0.4-0.5,0.6-0.8c0.3-0.4,0.5-0.8,0.6-1.2c0.2-0.5,0.3-1,0.3-1.4
	C20.8,4.6,20.6,3.7,20.1,2.9z"/>
</svg>
