<svg width="24" height="24" viewBox="0 0 24 24" fill="none" xmlns="http://www.w3.org/2000/svg">
<path d="M12 0C5.37253 0 0 5.37253 0 12C0 18.6275 5.37253 24 12 24C18.6275 24 24 18.6275 24 12C24 5.37253 18.6275 0 12 0Z" fill="#40B3E0"/>
<path d="M17.839 6.90278L15.6956 17.7092C15.6956 17.7092 15.3959 18.4587 14.5716 18.099L9.62551 14.307L7.82701 13.4377L4.79945 12.4185C4.79945 12.4185 4.33482 12.2537 4.28982 11.8939C4.24482 11.5342 4.81445 11.3394 4.81445 11.3394L16.8497 6.61815C16.8497 6.61815 17.8389 6.18353 17.8389 6.90296" fill="white"/>
<path d="M9.24543 17.5878C9.24543 17.5878 9.10106 17.5743 8.92106 17.0047C8.74134 16.4351 7.827 13.4376 7.827 13.4376L15.0962 8.82132C15.0962 8.82132 15.5159 8.56651 15.5009 8.82132C15.5009 8.82132 15.5758 8.86632 15.3509 9.07613C15.1262 9.28604 9.64059 14.217 9.64059 14.217" fill="#D2E5F1"/>
<path d="M11.522 15.7608L9.56567 17.5445C9.56567 17.5445 9.41267 17.6605 9.24542 17.5878L9.62005 14.2747" fill="#B5CFE4"/>
</svg>
