<svg width="24" height="24" viewBox="0 0 24 24" fill="none" xmlns="http://www.w3.org/2000/svg">
<path d="M5.41751 22.125L5.86887 22.35C7.7498 23.475 9.85625 24 11.9628 24C18.5833 24 24 18.6 24 12C24 8.85004 22.721 5.77502 20.4641 3.52498C18.2071 1.27495 15.1977 0 11.9628 0C5.34234 0 -0.0745051 5.39999 0.000775285 12.075C0.000775285 14.325 0.677867 16.5001 1.80632 18.375L2.10722 18.825L0.9036 23.2501L5.41751 22.125Z" fill="#00E676"/>
<path d="M17.1339 14.2208L17.8532 14.544C17.984 14.6086 18.0494 14.6733 18.0494 14.6733V15.1257L18.0492 15.1271C17.9838 15.4498 17.9185 15.7724 17.7879 16.0306C17.7224 16.16 17.5916 16.2892 17.4609 16.4185C17.3301 16.5478 17.1993 16.6123 17.0685 16.7416L16.9377 16.871C16.8069 17.0002 16.6761 17.0002 16.48 17.1295C16.2183 17.2588 15.826 17.388 15.499 17.388H14.8451C14.6488 17.3234 14.3873 17.3234 14.1911 17.2588C12.4254 16.8063 10.8559 15.966 9.48256 14.8024C9.35177 14.6086 9.15556 14.4793 8.95943 14.2854L8.69787 14.0268C7.65143 13.0573 6.86674 11.9584 6.27818 10.7303L6.21274 10.5364C6.01652 10.0839 5.88574 9.56673 5.88574 9.04966C5.88574 8.33865 6.60509 7.04589 6.60509 7.04589C6.60509 7.04589 6.78697 6.79289 6.93209 6.658C7.09236 6.50902 7.18432 6.40993 7.38987 6.33488C7.53577 6.28161 7.78231 6.2702 7.78231 6.2702C7.78231 6.2702 8.30543 6.20552 8.50165 6.2702C8.69787 6.33488 8.82856 6.39947 8.95943 6.59341C9.15556 6.98121 9.94034 8.72645 10.0057 9.04966C10.0711 9.24361 10.0057 9.50214 9.8749 9.69609C9.74412 9.82535 9.67877 10.0192 9.5479 10.1486C9.35177 10.3424 9.09021 10.6656 9.09021 10.6656C9.02477 10.7303 9.02477 10.8596 9.02477 10.9888C9.09021 11.1181 9.09021 11.1827 9.15556 11.2474L9.22099 11.3766C9.5479 11.9584 10.0057 12.4755 10.4635 12.928C10.5942 13.0573 10.7905 13.1866 10.9212 13.3158C11.4445 13.8329 12.0984 14.2208 12.8177 14.544L13.1447 14.6733C13.2101 14.7378 13.3409 14.8025 13.4063 14.8025H13.4717C13.6025 14.8025 13.7333 14.7378 13.7987 14.6086C14.7143 13.5744 14.7796 13.5098 14.7796 13.5098C14.9104 13.4451 15.0412 13.3804 15.2374 13.3804C15.3028 13.3804 15.3682 13.4451 15.4336 13.4451C16.0876 13.7683 17.1339 14.2208 17.1339 14.2208Z" fill="white"/>
</svg>
