<?xml version="1.0" encoding="utf-8"?>
<!-- Generator: Adobe Illustrator 24.0.2, SVG Export Plug-In . SVG Version: 6.00 Build 0)  -->
<svg version="1.1" id="Layer_1" xmlns="http://www.w3.org/2000/svg" xmlns:xlink="http://www.w3.org/1999/xlink" x="0px" y="0px"
	 width="61px" height="45px" viewBox="0 0 61 45" style="enable-background:new 0 0 61 45;" xml:space="preserve">
<style type="text/css">
	.st0{fill:#004262;}
</style>
<g>
	<path class="st0" d="M42.1,38.1h0.3c0,3.8,3.1,6.9,6.9,6.9s6.9-3.1,6.9-6.9v-0.3l0.3-0.1H60c0.5,0,0.9-0.4,0.9-0.9v-12
		c0-2.8-2.1-5.2-4.8-5.6l-0.2,0l-2-7.9l0.3-0.1c0.4-0.1,0.7-0.4,0.7-0.8V9.3c0-2.5-2-4.5-4.5-4.5h-8.7V2.1c0-1.1-0.9-2.1-2.1-2.1H7
		C5.8,0,4.9,0.9,4.9,2.1v20.4c0,0.5,0.4,0.9,0.9,0.9c0.5,0,0.9-0.4,0.9-0.9V2.1c0-0.2,0.2-0.3,0.3-0.3h32.6c0.2,0,0.3,0.2,0.3,0.3
		v20.4c0,0.5,0.4,0.9,0.9,0.9s0.9-0.4,0.9-0.9V21h13.6c1.7,0,3.2,1.1,3.8,2.7l0.1,0.3h-3.9c-0.5,0-0.9,0.4-0.9,0.9v2.4
		c0,1.8,1.5,3.3,3.3,3.3h1.5v5.5h-3.4l-0.1-0.2c-1-2.8-3.6-4.6-6.5-4.6s-5.5,1.9-6.5,4.6l-0.1,0.2h-1v-8.7c0-0.5-0.4-0.9-0.9-0.9
		c-0.5,0-0.9,0.4-0.9,0.9v8.7H26.8l-0.1-0.2c-1-2.8-3.6-4.6-6.5-4.6s-5.5,1.9-6.5,4.6l-0.1,0.2H7c-0.2,0-0.3-0.2-0.3-0.3V33h5.1
		c0.5,0,0.9-0.4,0.9-0.9c0-0.5-0.4-0.9-0.9-0.9H1c-0.5,0-0.9,0.4-0.9,0.9C0.1,32.6,0.5,33,1,33h3.9v2.7c0,1.1,0.9,2.1,2.1,2.1h6.3
		l0,0.3c0,3.8,3.1,6.9,6.9,6.9s6.9-3.1,6.9-6.9v-0.3l0.3-0.1h15l0,0.3L42.1,38.1z M41.7,6.5h8.7c1.5,0,2.7,1.2,2.7,2.7v0.3H41.7V6.5
		z M41.7,19.2v-7.9h10.5l2,7.9H41.7z M57.6,28.8c-0.8,0-1.5-0.7-1.5-1.5v-1.5h3.1v3.1H57.6z M49.2,33c2.8,0,5.1,2.3,5.1,5.1
		s-2.3,5.1-5.1,5.1s-5.1-2.3-5.1-5.1S46.4,33,49.2,33z M20.2,43.3c-2.8,0-5.1-2.3-5.1-5.1s2.3-5.1,5.1-5.1c2.8,0,5.1,2.3,5.1,5.1
		S23,43.3,20.2,43.3z"/>
	<path class="st0" d="M20.2,35.9c-1.2,0-2.2,1-2.2,2.2c0,1.2,1,2.2,2.2,2.2c1.2,0,2.2-1,2.2-2.2C22.4,36.9,21.4,35.9,20.2,35.9z"/>
	<circle class="st0" cx="49.2" cy="38.1" r="2.2"/>
	<path class="st0" d="M29.5,33.5h7c0.5,0,0.9-0.4,0.9-0.9c0-0.5-0.4-0.9-0.9-0.9h-7c-0.5,0-0.9,0.4-0.9,0.9
		C28.6,33.1,29,33.5,29.5,33.5z"/>
	<path class="st0" d="M16.9,26.6H1.8c-0.5,0-0.9,0.4-0.9,0.9c0,0.5,0.4,0.9,0.9,0.9h15.1c0.5,0,0.9-0.4,0.9-0.9
		C17.8,27,17.4,26.6,16.9,26.6z"/>
	<path class="st0" d="M34.6,8.6c0-0.2-0.1-0.5-0.3-0.7h0c-0.3-0.4-1-0.4-1.3,0L22.3,18.7L16.6,13c-0.2-0.2-0.4-0.3-0.7-0.3
		c-0.2,0-0.5,0.1-0.7,0.3c-0.2,0.2-0.3,0.4-0.3,0.7c0,0.2,0.1,0.5,0.3,0.7l6.3,6.3c0.3,0.4,1,0.4,1.3,0L34.3,9.3
		C34.5,9.1,34.6,8.8,34.6,8.6z"/>
</g>
</svg>
