<?xml version="1.0" encoding="utf-8"?>
<!-- Generator: Adobe Illustrator 24.0.2, SVG Export Plug-In . SVG Version: 6.00 Build 0)  -->
<svg version="1.1" id="Layer_1" xmlns="http://www.w3.org/2000/svg" xmlns:xlink="http://www.w3.org/1999/xlink" x="0px" y="0px"
	 width="61px" height="45px" viewBox="0 0 61 45" style="enable-background:new 0 0 61 45;" xml:space="preserve">
<style type="text/css">
	.st0{fill:#004262;}
</style>
<g id="Package_Returned">
	<path class="st0" d="M35.5,41.7H8c-0.5,0-0.8-0.4-0.8-0.8V7.5C7.2,7,7.5,6.7,8,6.7h36.7c0.5,0,0.8,0.4,0.8,0.8v16.8
		c0,0.5-0.4,0.8-0.8,0.8c-0.5,0-0.8-0.4-0.8-0.8v-16h-35V40h26.7c0.5,0,0.8,0.4,0.8,0.8C36.4,41.3,36,41.7,35.5,41.7z"/>
	<path class="st0" d="M44.7,8.3H8C7.5,8.3,7.2,8,7.2,7.5c0-0.2,0.1-0.4,0.2-0.5l5-6.7C12.5,0.1,12.7,0,13,0h26.7
		c0.3,0,0.5,0.1,0.7,0.3l5,6.7c0.3,0.4,0.2,0.9-0.2,1.2C45,8.3,44.8,8.3,44.7,8.3z M9.7,6.7H43l-3.8-5H13.4L9.7,6.7z"/>
	<path class="st0" d="M31.3,18.3c-0.2,0-0.4-0.1-0.6-0.2L29.7,17l-1.1,1.1c-0.3,0.3-0.9,0.3-1.2,0c0,0,0,0,0,0L26.3,17l-1.1,1.1
		c-0.3,0.3-0.9,0.3-1.2,0c0,0,0,0,0,0L23,17l-1.1,1.1c-0.3,0.3-0.9,0.3-1.2,0c-0.2-0.2-0.2-0.4-0.2-0.6v-10c0-0.5,0.4-0.8,0.8-0.8
		h10c0.5,0,0.8,0.4,0.8,0.8v10C32.2,18,31.8,18.3,31.3,18.3z M26.3,15c0.2,0,0.4,0.1,0.6,0.2l1.1,1.1l1.1-1.1c0.3-0.3,0.9-0.3,1.2,0
		c0,0,0,0,0,0l0.2,0.2V8.3h-8.3v7.2l0.2-0.2c0.3-0.3,0.9-0.3,1.2,0c0,0,0,0,0,0l1.1,1.1l1.1-1.1C25.9,15.1,26.1,15,26.3,15z"/>
	<path class="st0" d="M31.3,8.3h-10c-0.5,0-0.8-0.4-0.8-0.8c0-0.1,0-0.1,0-0.2l1.7-6.7C22.3,0.3,22.6,0,23,0h6.7
		c0.4,0,0.7,0.3,0.8,0.6l1.7,6.7c0.1,0.4-0.2,0.9-0.6,1C31.5,8.3,31.4,8.3,31.3,8.3z M22.4,6.7h7.9l-1.3-5h-5.4L22.4,6.7z"/>
	<path class="st0" d="M43,45c-6,0-10.8-4.9-10.8-10.8S37,23.3,43,23.3s10.8,4.9,10.8,10.8C53.8,40.1,49,45,43,45z M43,25
		c-5.1,0-9.2,4.1-9.2,9.2s4.1,9.2,9.2,9.2s9.2-4.1,9.2-9.2C52.2,29.1,48.1,25,43,25z"/>
	<path class="st0" d="M13,35c-0.5,0-0.8-0.4-0.8-0.8v-5c0-0.5,0.4-0.8,0.8-0.8s0.8,0.4,0.8,0.8v5C13.8,34.6,13.5,35,13,35z"/>
	<path class="st0" d="M14.7,31.7c-0.2,0-0.4-0.1-0.6-0.2L13,30.3l-1.1,1.1c-0.3,0.3-0.9,0.3-1.2,0c-0.3-0.3-0.3-0.8,0-1.2l1.7-1.7
		c0.3-0.3,0.9-0.3,1.2,0c0,0,0,0,0,0l1.7,1.7c0.3,0.3,0.3,0.9,0,1.2C15.1,31.6,14.9,31.7,14.7,31.7z"/>
	<path class="st0" d="M19.7,35c-0.5,0-0.8-0.4-0.8-0.8v-5c0-0.5,0.4-0.8,0.8-0.8c0.5,0,0.8,0.4,0.8,0.8v5C20.5,34.6,20.1,35,19.7,35
		z"/>
	<path class="st0" d="M21.3,31.7c-0.2,0-0.4-0.1-0.6-0.2l-1.1-1.1l-1.1,1.1c-0.3,0.3-0.9,0.3-1.2,0c-0.3-0.3-0.3-0.8,0-1.2l1.7-1.7
		c0.3-0.3,0.9-0.3,1.2,0c0,0,0,0,0,0l1.7,1.7c0.3,0.3,0.3,0.9,0,1.2C21.8,31.6,21.6,31.7,21.3,31.7z"/>
	<path class="st0" d="M21.3,38.3h-10c-0.5,0-0.8-0.4-0.8-0.8s0.4-0.8,0.8-0.8h10c0.5,0,0.8,0.4,0.8,0.8S21.8,38.3,21.3,38.3z"/>
	<path class="st0" d="M41.3,35.8c-0.2,0-0.4-0.1-0.5-0.2l-3.3-2.5c-0.4-0.3-0.4-0.8-0.2-1.2c0-0.1,0.1-0.1,0.2-0.2l3.3-2.5
		c0.4-0.3,0.9-0.2,1.2,0.1c0.3,0.4,0.2,0.9-0.1,1.2c0,0,0,0,0,0l-2.4,1.8l2.4,1.8c0.4,0.3,0.4,0.8,0.2,1.2
		C41.8,35.7,41.6,35.8,41.3,35.8z"/>
	<path class="st0" d="M45.1,39.2H43c-0.5,0-0.8-0.4-0.8-0.8c0-0.5,0.4-0.8,0.8-0.8h2.1c1.2,0,2.1-0.9,2.1-2.1s-0.9-2.1-2.1-2.1H38
		c-0.5,0-0.8-0.4-0.8-0.8s0.4-0.8,0.8-0.8h7.1c2.1,0,3.8,1.7,3.8,3.8C48.8,37.5,47.2,39.2,45.1,39.2z"/>
</g>
</svg>
