<?xml version="1.0" encoding="utf-8"?>
<!-- Generator: Adobe Illustrator 24.0.2, SVG Export Plug-In . SVG Version: 6.00 Build 0)  -->
<svg version="1.1" id="Layer_1" xmlns="http://www.w3.org/2000/svg" xmlns:xlink="http://www.w3.org/1999/xlink" x="0px" y="0px"
	 width="61px" height="45px" viewBox="0 0 61 45" style="enable-background:new 0 0 61 45;" xml:space="preserve">
<style type="text/css">
	.st0{fill:#004262;}
</style>
<path class="st0" d="M43.1,11.6L38.6,10V8.1c0-0.3-0.2-0.7-0.5-0.8L34.8,6l-0.6-2.5c-0.1-0.4-0.4-0.6-0.8-0.6h-0.6v-2
	c0-0.5-0.4-0.8-0.8-0.8h-2.9c-0.5,0-0.8,0.4-0.8,0.8v2h-0.6c-0.4,0-0.7,0.3-0.8,0.6L26.2,6L23,7.3c-0.3,0.1-0.5,0.4-0.5,0.8V10
	l-4.5,1.6c-0.4,0.1-0.6,0.6-0.5,1l3.5,13.3c-0.7,1.1-2.8,5.3-2.8,15.3c0,0.5,0.4,0.8,0.8,0.8h8.5v2c0,0.5,0.4,0.8,0.8,0.8h4.3
	c0.5,0,0.8-0.4,0.8-0.8v-2h8.5c0.5,0,0.8-0.4,0.8-0.8c0-10.1-2.1-14.2-2.8-15.3l3.5-13.3C43.7,12.2,43.5,11.8,43.1,11.6z M31.8,42.1
	v1.2h-2.6v-1.2H31.8z M24.8,29.7c0-0.4-0.3-0.8-0.7-0.8v-1.2c0.4-0.1,0.7-0.4,0.7-0.8c0-0.4-0.3-0.8-0.7-0.8v-1.2
	c0.4-0.1,0.7-0.4,0.7-0.8c0-0.4-0.3-0.8-0.7-0.8v-1.2c0.4-0.1,0.7-0.4,0.7-0.8c0-0.4-0.3-0.8-0.7-0.8V19c0.4-0.1,0.7-0.4,0.7-0.8
	s-0.3-0.8-0.7-0.8v-1.2c0.4-0.1,0.7-0.4,0.7-0.8s-0.3-0.8-0.7-0.8v-1.2c0.4-0.1,0.7-0.4,0.7-0.8c0-0.4-0.3-0.8-0.7-0.8v-1.2
	c0.4-0.1,0.7-0.4,0.7-0.8s-0.3-0.8-0.7-0.8v0L25.7,8l-0.3,1.3c0,0.1,0,0.1,0,0.2v23.7h-1.2v-2.7C24.5,30.5,24.8,30.1,24.8,29.7z
	 M24.1,36.1v-1.2h1.2v1.2H24.1z M29.9,2.9V1.7h1.2v1.2H29.9z M36.2,9.5c0,0.4,0.3,0.8,0.7,0.8v1.2c-0.4,0.1-0.7,0.4-0.7,0.8
	c0,0.4,0.3,0.8,0.7,0.8v1.2c-0.4,0.1-0.7,0.4-0.7,0.8s0.3,0.8,0.7,0.8v1.2c-0.4,0.1-0.7,0.4-0.7,0.8s0.3,0.8,0.7,0.8v1.2
	c-0.4,0.1-0.7,0.4-0.7,0.8c0,0.4,0.3,0.8,0.7,0.8v1.2c-0.4,0.1-0.7,0.4-0.7,0.8c0,0.4,0.3,0.8,0.7,0.8V26c-0.4,0.1-0.7,0.4-0.7,0.8
	c0,0.4,0.3,0.8,0.7,0.8v1.2c-0.4,0.1-0.7,0.4-0.7,0.8s0.3,0.8,0.7,0.8v1.2h-1.2V9.5c0-0.1,0-0.1,0-0.2L35.3,8l1.5,0.6v0
	C36.5,8.7,36.2,9.1,36.2,9.5z M38.6,25.1V11.8l3.2,1.2L38.6,25.1z M19.2,12.9l3.2-1.2v13.3L19.2,12.9z M22.4,26.7v10.2
	c0,0.5,0.4,0.8,0.8,0.8h2.9c0.5,0,0.8-0.4,0.8-0.8l0-27.3l1.3-5.1h4.5l1.3,5v23c0,0.5,0.4,0.8,0.8,0.8h2.9c0.5,0,0.8-0.4,0.8-0.8
	v-5.9c0.3,0.5,2.5,4,2.6,13.7H19.8C19.9,30.7,22.1,27.2,22.4,26.7z"/>
</svg>
